PathFileType	3	(X/Y/Z)	E:\ViconData\BIOM9541 2025\Week 7\Wed1100\Hanif 90 squat 7-5 Squat 01.trc
DataRate	CameraRate	NumFrames	NumMarkers	Units	OrigDataRate	OrigDataStartFrame	OrigNumFrames
200.0	200.0	18	19	mm	200.0	1	1661	
Frame#	Time	C7			CLAV			RBAK			LASI			RASI			LPSI			RPSI			LTHI			LKNE			LTIB			LANK			LHEE			LTOE			RTHI			RKNE			RTIB			RANK			RHEE			RTOE			
		X1	Y1	Z1	X2	Y2	Z2	X3	Y3	Z3	X4	Y4	Z4	X5	Y5	Z5	X6	Y6	Z6	X7	Y7	Z7	X8	Y8	Z8	X9	Y9	Z9	X10	Y10	Z10	X11	Y11	Z11	X12	Y12	Z12	X13	Y13	Z13	X14	Y14	Z14	X15	Y15	Z15	X16	Y16	Z16	X17	Y17	Z17	X18	Y18	Z18	X19	Y19	Z19	
1	0	360.3201	1312.5173	-1196.3164	208.31833	1250.8304	-1184.4056	368.05365	1230.4697	-1346.8276	199.35271	880.98553	-1066.6702	186.0885	889.6283	-1326.5339	368.42505	935.14874	-1157.9626	365.45892	932.86047	-1232.5167	262.00916	553.8548	-994.15942	286.47995	418.15662	-998.65784	310.26105	220.36308	-960.57617	313.78363	61.848141	-965.05267	337.37799	46.117619	-1021.2399	164.76718	38.299252	-948.34558	242.93436	727.70819	-1392.2083	280.70908	419.54135	-1406.174	295.73666	334.23395	-1432.6173	306.92197	73.747162	-1434.8555	333.1571	49.130375	-1379.7784	162.84705	39.886185	-1464.5402
2	0.005	360.20471	1312.4653	-1196.2709	208.20786	1250.8123	-1184.4062	367.96091	1230.4391	-1346.7698	199.12202	880.9151	-1066.6095	185.89082	889.63306	-1326.5118	368.20377	935.21014	-1157.7048	365.18732	932.81818	-1232.4006	261.82556	553.81097	-994.0899	286.3728	418.09033	-998.64612	310.20621	220.29045	-960.54321	313.78055	61.835583	-965.03284	337.3736	46.184315	-1021.276	164.74896	38.25552	-948.28851	242.79239	727.72491	-1392.1552	280.61646	419.5802	-1406.124	295.67371	334.28027	-1432.5759	306.95059	73.857521	-1434.8462	330.2258	48.822407	-1373.1038	162.84351	39.895546	-1464.54
3	0.01	360.0762	1312.3903	-1196.2133	208.07188	1250.7899	-1184.3243	367.84421	1230.3982	-1346.6934	198.91231	880.85962	-1066.5432	185.69836	889.65497	-1326.4723	367.97797	935.25482	-1157.3348	364.90533	932.64343	-1232.2852	261.67664	553.72461	-994.04926	286.26215	418.00027	-998.60602	310.13937	220.25201	-960.49982	313.72382	61.801373	-964.9729	337.39996	46.277725	-1021.3194	164.73936	38.217636	-948.26746	242.66371	727.7735	-1392.1021	280.55405	419.64871	-1406.0908	295.62268	334.34949	-1432.553	306.94357	73.943443	-1434.8246	330.16428	48.878044	-1372.8861	162.79716	39.92889	-1464.5249
4	0.015	359.97165	1312.329	-1196.1543	207.94353	1250.7601	-1184.3336	367.76639	1230.3346	-1346.6365	198.69804	880.83203	-1066.4812	185.52145	889.62689	-1326.4353	367.7196	935.28265	-1157.0714	364.65726	932.51294	-1232.186	261.52069	553.6781	-994.01562	286.14197	417.92578	-998.60339	310.07831	220.20155	-960.479	313.70294	61.766731	-964.94653	337.4342	46.349777	-1021.4014	164.77243	38.168018	-948.2522	242.54385	727.76581	-1392.0364	280.47891	419.6651	-1406.0515	295.59033	334.37415	-1432.5105	307.07507	74.230469	-1434.8994	329.96744	49.400249	-1372.073	162.8394	39.907169	-1464.5035
5	0.02	359.84253	1312.28	-1196.1102	207.80502	1250.7689	-1184.3196	367.68158	1230.2827	-1346.5442	198.45575	880.83807	-1066.3894	185.37476	889.58984	-1326.3842	367.50598	935.2984	-1157.0554	364.4744	932.50543	-1232.1078	261.35107	553.67487	-993.99249	285.98517	417.96713	-998.55865	309.98389	220.21973	-960.44562	313.71671	61.757477	-964.98358	337.46411	46.289783	-1021.3732	164.79878	38.124161	-948.25104	242.4373	727.71558	-1391.9777	280.4339	419.63788	-1406.0181	295.59052	334.33987	-1432.4701	307.11618	74.225212	-1434.8425	330.03247	49.3703	-1372.2462	162.90263	39.852097	-1464.5006
6	0.025	359.70743	1312.2422	-1196.0852	207.62373	1250.7727	-1184.3058	367.5838	1230.2373	-1346.4492	198.22523	880.84204	-1066.3257	185.00098	889.08014	-1326.2909	367.33328	935.27637	-1157.1744	364.39658	932.73053	-1232.0973	261.20331	553.67639	-994.00165	285.86627	417.99719	-998.55151	309.87881	220.27327	-960.39301	313.73242	61.786098	-965.03162	337.42078	46.191406	-1021.3107	164.77625	38.116493	-948.30389	242.30096	727.66815	-1391.9135	280.36053	419.59433	-1405.9822	295.52487	334.30237	-1432.4316	307.1221	74.165833	-1434.8025	329.9967	49.376961	-1372.2875	162.8968	39.807076	-1464.5726
7	0.03	359.54974	1312.2585	-1195.9979	207.43707	1250.8113	-1184.2281	367.45898	1230.2024	-1346.3521	197.99791	880.84491	-1066.2346	184.81133	889.09698	-1326.2343	367.15552	935.27747	-1157.2133	364.23819	932.82812	-1232.0513	261.06186	553.67932	-993.9942	285.75632	418.00208	-998.5426	309.80319	220.30446	-960.36139	313.74051	61.808662	-965.08051	337.33926	46.136265	-1021.2676	164.73322	38.137405	-948.30646	242.11488	727.67578	-1391.8558	280.22214	419.6084	-1405.9608	295.44946	334.30545	-1432.3911	307.12827	74.155029	-1434.7749	329.92383	49.486992	-1372.1597	162.85365	39.786945	-1464.5498
8	0.035	359.37311	1312.2748	-1195.9054	207.27112	1250.8622	-1184.1293	367.30899	1230.2112	-1346.2557	197.78342	880.83496	-1066.1516	184.62106	889.17578	-1326.1589	366.98773	935.32092	-1157.0699	364.05283	932.82367	-1232.0139	260.9147	553.66559	-993.96118	285.65878	417.99963	-998.52417	309.73752	220.29672	-960.32556	313.7128	61.827374	-965.08075	337.34094	46.18206	-1021.2899	164.72171	38.144653	-948.29205	241.91579	727.74652	-1391.7859	280.08994	419.67853	-1405.9469	295.36038	334.3692	-1432.3472	306.95087	74.006058	-1434.6432	329.98593	49.080013	-1372.6989	162.82159	39.792751	-1464.5492
9	0.04	359.22159	1312.281	-1195.8539	207.08441	1250.8893	-1184.0396	367.1586	1230.2152	-1346.1704	197.58224	880.81696	-1066.0828	184.44266	889.26086	-1326.0737	366.75281	935.36792	-1156.8666	363.8345	932.79272	-1231.9547	260.73349	553.60919	-993.9176	285.53076	417.98074	-998.47711	309.68307	220.29031	-960.26343	313.70099	61.843273	-965.10382	337.40768	46.285702	-1021.3749	164.71136	38.153568	-948.31183	241.75723	727.79053	-1391.7308	279.95248	419.77148	-1405.9423	295.23685	334.46127	-1432.3129	306.91196	74.083435	-1434.6001	329.89893	49.151028	-1372.532	162.87047	39.83094	-1464.5984
10	0.045	359.09195	1312.2612	-1195.8529	206.92404	1250.8793	-1184.0016	367.08765	1230.2013	-1346.1279	197.36438	880.79706	-1065.9933	184.29247	889.27789	-1326.0074	366.54105	935.35944	-1156.8074	363.60672	932.73053	-1231.8669	260.57285	553.58533	-993.87988	285.42239	417.95358	-998.46088	309.60999	220.29245	-960.22302	313.69705	61.832806	-965.10022	337.4216	46.281788	-1021.4182	164.74324	38.144043	-948.32678	241.62332	727.79474	-1391.6798	279.83035	419.79501	-1405.941	295.14664	334.45139	-1432.2783	306.92575	74.108429	-1434.5688	329.88	49.206455	-1372.4606	162.86282	39.777912	-1464.5933
11	0.05	358.95377	1312.2123	-1195.8363	206.78287	1250.8685	-1183.9553	367.01532	1230.1404	-1346.0685	197.15591	880.80945	-1065.9634	184.32843	889.59387	-1325.988	366.3634	935.32996	-1156.8306	363.45129	932.78979	-1231.7836	260.35205	553.59949	-993.79138	285.29544	418.01004	-998.4007	309.54465	220.29585	-960.1684	313.71548	61.816296	-965.11194	337.46854	46.265545	-1021.4826	164.7814	38.100109	-948.34515	241.50194	727.79132	-1391.6437	279.69138	419.7399	-1405.9338	295.02557	334.40182	-1432.2339	306.92764	74.055229	-1434.5319	329.84631	49.19643	-1372.4526	162.84729	39.7411	-1464.6355
12	0.055	358.83185	1312.1832	-1195.8522	206.65158	1250.8796	-1183.9117	366.90778	1230.0753	-1346.0063	196.95491	880.80414	-1065.8844	184.15033	889.61285	-1325.932	366.17645	935.34833	-1156.8118	363.28891	932.73535	-1231.6901	260.23038	553.59186	-993.81415	285.21765	418.01471	-998.40533	309.46887	220.32919	-960.11768	313.72751	61.824329	-965.11151	337.47543	46.247299	-1021.5273	164.80087	38.057022	-948.32611	241.35799	727.7951	-1391.6027	279.5311	419.73715	-1405.9474	294.87296	334.4162	-1432.2072	306.93033	74.076401	-1434.5083	329.77972	49.327484	-1372.3544	162.93439	39.677719	-1464.7035
13	0.06	358.68085	1312.208	-1195.8429	206.49687	1250.9177	-1183.9176	366.80161	1230.0491	-1345.9371	196.73228	880.8092	-1065.8032	183.79762	889.38776	-1325.8322	365.96295	935.42731	-1156.573	363.07544	932.74744	-1231.5741	260.07809	553.55615	-993.82532	285.11984	417.99933	-998.40942	308.67242	220.81836	-958.40002	313.72519	61.855976	-965.09406	337.48734	46.331047	-1021.5848	164.79643	38.086582	-948.33411	241.16917	727.90656	-1391.5583	279.32034	419.82205	-1405.9429	294.69907	334.50513	-1432.1471	307.02194	74.341293	-1434.5288	329.60956	49.885677	-1371.5978	162.84085	39.750225	-1464.7411
14	0.065	358.51718	1312.2026	-1195.7648	206.32292	1250.9877	-1183.8502	366.63641	1230.0547	-1345.8635	196.52538	880.79889	-1065.7114	183.62979	889.44525	-1325.7396	365.80661	935.5152	-1156.4716	362.88806	932.71503	-1231.506	259.90314	553.5528	-993.78827	285.01669	417.99564	-998.38495	309.24747	220.3905	-959.80786	313.71829	61.887558	-965.10559	337.45984	46.351772	-1021.5353	164.78755	38.090221	-948.3172	241.04822	727.95203	-1391.5101	279.0932	419.95532	-1405.8928	294.53763	334.57986	-1432.0675	306.98138	74.488998	-1434.4308	329.52362	50.053841	-1371.4379	162.81651	39.775833	-1464.7721
15	0.07	358.35037	1312.2302	-1195.6791	206.17664	1251.0681	-1183.8462	366.54214	1230.1178	-1345.7993	196.35281	880.80194	-1065.6621	183.42404	889.51532	-1325.6586	365.61597	935.51111	-1156.2568	362.74557	932.84125	-1231.4164	259.73682	553.59314	-993.76178	284.92538	418.05661	-998.34521	309.20474	220.42387	-959.82263	313.71976	61.911736	-965.11804	337.45609	46.350815	-1021.5308	164.74838	38.115692	-948.32855	240.85342	728.02228	-1391.4489	278.85754	420.00644	-1405.8572	294.37109	334.62766	-1432.0038	306.9393	74.564423	-1434.3203	329.38794	50.121643	-1371.2256	162.73918	39.789295	-1464.8412
16	0.075	358.18921	1312.259	-1195.5653	205.90849	1251.2134	-1183.8038	366.41855	1230.146	-1345.6931	196.16348	880.86499	-1065.5818	183.21729	889.56171	-1325.5681	365.49951	935.48907	-1156.4951	362.65909	933.03961	-1231.3523	259.6456	553.63007	-993.78259	284.82809	418.10291	-998.31873	309.17075	220.49045	-959.80585	313.73886	61.919819	-965.1792	337.43597	46.248531	-1021.4725	164.79263	38.13221	-948.34418	240.68648	728.06256	-1391.3718	278.64014	419.97165	-1405.8093	294.23639	334.61368	-1431.9279	306.93451	74.56649	-1434.186	329.31503	50.218914	-1371.1204	162.74849	39.734367	-1464.8995
17	0.08	358.03189	1312.2772	-1195.4591	205.63326	1251.318	-1183.7275	366.30566	1230.1425	-1345.6008	195.97719	880.88318	-1065.488	183.00287	889.58856	-1325.473	365.35193	935.45447	-1156.5944	362.55936	933.18103	-1231.2728	259.51389	553.62891	-993.76172	284.76013	418.15588	-998.27441	309.13086	220.49222	-959.79504	313.7247	61.941051	-965.18524	337.41443	46.143459	-1021.4375	164.79915	38.128967	-948.35223	240.50291	728.08026	-1391.2803	278.37695	419.95963	-1405.7725	294.05783	334.58411	-1431.8467	306.90863	74.523392	-1434.0409	329.24646	50.169548	-1371.2242	162.6881	39.588394	-1464.8596
18	0.085	357.86633	1312.3055	-1195.3672	205.42583	1251.3824	-1183.6466	366.18277	1230.1759	-1345.515	195.84068	880.8692	-1065.4198	182.93254	889.94415	-1325.3928	365.14282	935.46051	-1156.3866	362.36145	933.20819	-1231.1492	259.42084	553.58124	-993.75964	284.69708	418.10205	-998.27856	309.12543	220.4474	-959.82117	313.71722	61.915382	-965.18951	337.39789	46.155514	-1021.4497	164.8019	38.088024	-948.29449	240.25784	728.21063	-1391.2083	278.13126	420.05539	-1405.7295	293.86566	334.62045	-1431.7469	306.81903	74.592079	-1433.823	329.00287	50.274799	-1370.8616	162.56628	39.594696	-1464.8782
